<?xml version="1.0" encoding="UTF-8"?>
<svg xmlns="http://www.w3.org/2000/svg" width="256" height="256" viewBox="0 0 256 256">
  <defs>
    <!-- Background radial -->
    <radialGradient id="bgGrad" cx="50%" cy="45%" r="55%">
      <stop offset="0%"   stop-color="#1e3a50"/>
      <stop offset="100%" stop-color="#0a1520"/>
    </radialGradient>
    <!-- Vase fill gradient -->
    <linearGradient id="vaseGrad" x1="0%" y1="0%" x2="100%" y2="0%">
      <stop offset="0%"   stop-color="#0d2233"/>
      <stop offset="45%"  stop-color="#163550"/>
      <stop offset="100%" stop-color="#0d2233"/>
    </linearGradient>
    <!-- Wave line gradient -->
    <linearGradient id="waveGrad" x1="0%" y1="0%" x2="100%" y2="0%">
      <stop offset="0%"   stop-color="#4ab3e8" stop-opacity="0.3"/>
      <stop offset="50%"  stop-color="#7ed4f7"/>
      <stop offset="100%" stop-color="#4ab3e8" stop-opacity="0.3"/>
    </linearGradient>
    <!-- Vase edge glow -->
    <linearGradient id="edgeGrad" x1="0%" y1="0%" x2="0%" y2="100%">
      <stop offset="0%"   stop-color="#5cc8f5"/>
      <stop offset="60%"  stop-color="#3a9fd4"/>
      <stop offset="100%" stop-color="#1e6e9f"/>
    </linearGradient>
    <!-- Clip to vase shape -->
    <clipPath id="vaseClip">
      <path d="M 94.00,32.00 L 94.15,33.53 L 94.30,35.07 L 94.44,36.60 L 94.59,38.13 L 94.74,39.67 L 94.89,41.20 L 95.04,42.73 L 95.19,44.27 L 95.33,45.80 L 95.48,47.33 L 95.63,48.87 L 95.78,50.40 L 95.93,51.93 L 96.07,53.47 L 96.22,55.00 L 96.37,56.53 L 96.52,58.07 L 96.67,59.60 L 96.81,61.13 L 96.96,62.67 L 97.11,64.20 L 97.26,65.73 L 97.41,67.27 L 97.56,68.80 L 97.70,70.33 L 97.85,71.87 L 98.00,73.40 L 98.15,74.93 L 98.30,76.47 L 98.44,78.00 L 98.59,79.53 L 98.74,81.07 L 98.89,82.60 L 99.04,84.13 L 99.19,85.67 L 99.33,87.20 L 99.48,88.73 L 99.63,90.27 L 99.78,91.80 L 99.93,93.33 L 100.07,94.87 L 100.22,96.40 L 100.37,97.93 L 100.52,99.47 L 100.67,101.00 L 100.81,102.53 L 100.96,104.07 L 101.11,105.60 L 101.26,107.13 L 101.41,108.67 L 101.56,110.20 L 101.70,111.73 L 101.85,113.27 L 102.00,114.80 L 101.72,116.33 L 101.44,117.87 L 101.17,119.40 L 100.89,120.93 L 100.61,122.47 L 100.33,124.00 L 100.06,125.53 L 99.78,127.07 L 99.50,128.60 L 99.22,130.13 L 98.94,131.67 L 98.67,133.20 L 98.39,134.73 L 98.11,136.27 L 97.83,137.80 L 97.56,139.33 L 97.28,140.87 L 97.00,142.40 L 96.72,143.93 L 96.44,145.47 L 96.17,147.00 L 95.89,148.53 L 95.61,150.07 L 95.33,151.60 L 95.06,153.13 L 94.78,154.67 L 94.50,156.20 L 94.22,157.73 L 93.94,159.27 L 93.67,160.80 L 93.39,162.33 L 93.11,163.87 L 92.83,165.40 L 92.56,166.93 L 92.28,168.47 L 92.00,170.00 L 91.60,171.53 L 91.20,173.07 L 90.80,174.60 L 90.40,176.13 L 90.00,177.67 L 89.60,179.20 L 89.20,180.73 L 88.80,182.27 L 88.40,183.80 L 88.00,185.33 L 87.60,186.87 L 87.20,188.40 L 86.80,189.93 L 86.40,191.47 L 86.00,193.00 L 85.60,194.53 L 85.20,196.07 L 84.80,197.60 L 84.40,199.13 L 84.00,200.67 L 83.60,202.20 L 83.20,203.73 L 82.80,205.27 L 82.40,206.80 L 82.00,208.33 L 81.60,209.87 L 81.20,211.40 L 80.80,212.93 L 80.40,214.47 L 80.00,216.00 L 176.00,216.00 L 175.60,214.47 L 175.20,212.93 L 174.80,211.40 L 174.40,209.87 L 174.00,208.33 L 173.60,206.80 L 173.20,205.27 L 172.80,203.73 L 172.40,202.20 L 172.00,200.67 L 171.60,199.13 L 171.20,197.60 L 170.80,196.07 L 170.40,194.53 L 170.00,193.00 L 169.60,191.47 L 169.20,189.93 L 168.80,188.40 L 168.40,186.87 L 168.00,185.33 L 167.60,183.80 L 167.20,182.27 L 166.80,180.73 L 166.40,179.20 L 166.00,177.67 L 165.60,176.13 L 165.20,174.60 L 164.80,173.07 L 164.40,171.53 L 164.00,170.00 L 163.72,168.47 L 163.44,166.93 L 163.17,165.40 L 162.89,163.87 L 162.61,162.33 L 162.33,160.80 L 162.06,159.27 L 161.78,157.73 L 161.50,156.20 L 161.22,154.67 L 160.94,153.13 L 160.67,151.60 L 160.39,150.07 L 160.11,148.53 L 159.83,147.00 L 159.56,145.47 L 159.28,143.93 L 159.00,142.40 L 158.72,140.87 L 158.44,139.33 L 158.17,137.80 L 157.89,136.27 L 157.61,134.73 L 157.33,133.20 L 157.06,131.67 L 156.78,130.13 L 156.50,128.60 L 156.22,127.07 L 155.94,125.53 L 155.67,124.00 L 155.39,122.47 L 155.11,120.93 L 154.83,119.40 L 154.56,117.87 L 154.28,116.33 L 154.00,114.80 L 154.15,113.27 L 154.30,111.73 L 154.44,110.20 L 154.59,108.67 L 154.74,107.13 L 154.89,105.60 L 155.04,104.07 L 155.19,102.53 L 155.33,101.00 L 155.48,99.47 L 155.63,97.93 L 155.78,96.40 L 155.93,94.87 L 156.07,93.33 L 156.22,91.80 L 156.37,90.27 L 156.52,88.73 L 156.67,87.20 L 156.81,85.67 L 156.96,84.13 L 157.11,82.60 L 157.26,81.07 L 157.41,79.53 L 157.56,78.00 L 157.70,76.47 L 157.85,74.93 L 158.00,73.40 L 158.15,71.87 L 158.30,70.33 L 158.44,68.80 L 158.59,67.27 L 158.74,65.73 L 158.89,64.20 L 159.04,62.67 L 159.19,61.13 L 159.33,59.60 L 159.48,58.07 L 159.63,56.53 L 159.78,55.00 L 159.93,53.47 L 160.07,51.93 L 160.22,50.40 L 160.37,48.87 L 160.52,47.33 L 160.67,45.80 L 160.81,44.27 L 160.96,42.73 L 161.11,41.20 L 161.26,39.67 L 161.41,38.13 L 161.56,36.60 L 161.70,35.07 L 161.85,33.53 L 162.00,32.00 Z"/>
    </clipPath>
    <!-- Drop shadow filter -->
    <filter id="shadow" x="-20%" y="-20%" width="140%" height="140%">
      <feDropShadow dx="0" dy="4" stdDeviation="8" flood-color="#000" flood-opacity="0.5"/>
    </filter>
    <filter id="glow">
      <feGaussianBlur stdDeviation="2.5" result="blur"/>
      <feMerge><feMergeNode in="blur"/><feMergeNode in="SourceGraphic"/></feMerge>
    </filter>
  </defs>

  <!-- Background circle -->
  <circle cx="128" cy="128" r="124" fill="url(#bgGrad)" filter="url(#shadow)"/>
  <circle cx="128" cy="128" r="124" fill="none" stroke="#1e4060" stroke-width="1.5"/>

  <!-- Vase body fill -->
  <path d="M 94.00,32.00 L 94.15,33.53 L 94.30,35.07 L 94.44,36.60 L 94.59,38.13 L 94.74,39.67 L 94.89,41.20 L 95.04,42.73 L 95.19,44.27 L 95.33,45.80 L 95.48,47.33 L 95.63,48.87 L 95.78,50.40 L 95.93,51.93 L 96.07,53.47 L 96.22,55.00 L 96.37,56.53 L 96.52,58.07 L 96.67,59.60 L 96.81,61.13 L 96.96,62.67 L 97.11,64.20 L 97.26,65.73 L 97.41,67.27 L 97.56,68.80 L 97.70,70.33 L 97.85,71.87 L 98.00,73.40 L 98.15,74.93 L 98.30,76.47 L 98.44,78.00 L 98.59,79.53 L 98.74,81.07 L 98.89,82.60 L 99.04,84.13 L 99.19,85.67 L 99.33,87.20 L 99.48,88.73 L 99.63,90.27 L 99.78,91.80 L 99.93,93.33 L 100.07,94.87 L 100.22,96.40 L 100.37,97.93 L 100.52,99.47 L 100.67,101.00 L 100.81,102.53 L 100.96,104.07 L 101.11,105.60 L 101.26,107.13 L 101.41,108.67 L 101.56,110.20 L 101.70,111.73 L 101.85,113.27 L 102.00,114.80 L 101.72,116.33 L 101.44,117.87 L 101.17,119.40 L 100.89,120.93 L 100.61,122.47 L 100.33,124.00 L 100.06,125.53 L 99.78,127.07 L 99.50,128.60 L 99.22,130.13 L 98.94,131.67 L 98.67,133.20 L 98.39,134.73 L 98.11,136.27 L 97.83,137.80 L 97.56,139.33 L 97.28,140.87 L 97.00,142.40 L 96.72,143.93 L 96.44,145.47 L 96.17,147.00 L 95.89,148.53 L 95.61,150.07 L 95.33,151.60 L 95.06,153.13 L 94.78,154.67 L 94.50,156.20 L 94.22,157.73 L 93.94,159.27 L 93.67,160.80 L 93.39,162.33 L 93.11,163.87 L 92.83,165.40 L 92.56,166.93 L 92.28,168.47 L 92.00,170.00 L 91.60,171.53 L 91.20,173.07 L 90.80,174.60 L 90.40,176.13 L 90.00,177.67 L 89.60,179.20 L 89.20,180.73 L 88.80,182.27 L 88.40,183.80 L 88.00,185.33 L 87.60,186.87 L 87.20,188.40 L 86.80,189.93 L 86.40,191.47 L 86.00,193.00 L 85.60,194.53 L 85.20,196.07 L 84.80,197.60 L 84.40,199.13 L 84.00,200.67 L 83.60,202.20 L 83.20,203.73 L 82.80,205.27 L 82.40,206.80 L 82.00,208.33 L 81.60,209.87 L 81.20,211.40 L 80.80,212.93 L 80.40,214.47 L 80.00,216.00 L 176.00,216.00 L 175.60,214.47 L 175.20,212.93 L 174.80,211.40 L 174.40,209.87 L 174.00,208.33 L 173.60,206.80 L 173.20,205.27 L 172.80,203.73 L 172.40,202.20 L 172.00,200.67 L 171.60,199.13 L 171.20,197.60 L 170.80,196.07 L 170.40,194.53 L 170.00,193.00 L 169.60,191.47 L 169.20,189.93 L 168.80,188.40 L 168.40,186.87 L 168.00,185.33 L 167.60,183.80 L 167.20,182.27 L 166.80,180.73 L 166.40,179.20 L 166.00,177.67 L 165.60,176.13 L 165.20,174.60 L 164.80,173.07 L 164.40,171.53 L 164.00,170.00 L 163.72,168.47 L 163.44,166.93 L 163.17,165.40 L 162.89,163.87 L 162.61,162.33 L 162.33,160.80 L 162.06,159.27 L 161.78,157.73 L 161.50,156.20 L 161.22,154.67 L 160.94,153.13 L 160.67,151.60 L 160.39,150.07 L 160.11,148.53 L 159.83,147.00 L 159.56,145.47 L 159.28,143.93 L 159.00,142.40 L 158.72,140.87 L 158.44,139.33 L 158.17,137.80 L 157.89,136.27 L 157.61,134.73 L 157.33,133.20 L 157.06,131.67 L 156.78,130.13 L 156.50,128.60 L 156.22,127.07 L 155.94,125.53 L 155.67,124.00 L 155.39,122.47 L 155.11,120.93 L 154.83,119.40 L 154.56,117.87 L 154.28,116.33 L 154.00,114.80 L 154.15,113.27 L 154.30,111.73 L 154.44,110.20 L 154.59,108.67 L 154.74,107.13 L 154.89,105.60 L 155.04,104.07 L 155.19,102.53 L 155.33,101.00 L 155.48,99.47 L 155.63,97.93 L 155.78,96.40 L 155.93,94.87 L 156.07,93.33 L 156.22,91.80 L 156.37,90.27 L 156.52,88.73 L 156.67,87.20 L 156.81,85.67 L 156.96,84.13 L 157.11,82.60 L 157.26,81.07 L 157.41,79.53 L 157.56,78.00 L 157.70,76.47 L 157.85,74.93 L 158.00,73.40 L 158.15,71.87 L 158.30,70.33 L 158.44,68.80 L 158.59,67.27 L 158.74,65.73 L 158.89,64.20 L 159.04,62.67 L 159.19,61.13 L 159.33,59.60 L 159.48,58.07 L 159.63,56.53 L 159.78,55.00 L 159.93,53.47 L 160.07,51.93 L 160.22,50.40 L 160.37,48.87 L 160.52,47.33 L 160.67,45.80 L 160.81,44.27 L 160.96,42.73 L 161.11,41.20 L 161.26,39.67 L 161.41,38.13 L 161.56,36.60 L 161.70,35.07 L 161.85,33.53 L 162.00,32.00 Z" fill="url(#vaseGrad)"/>

  <!-- Wave lines clipped to vase -->
  <g clip-path="url(#vaseClip)" filter="url(#glow)">
    <path d="M 84.40,206.80 L 85.49,206.80 L 86.58,206.80 L 87.67,206.80 L 88.76,206.80 L 89.85,206.80 L 90.94,206.80 L 92.03,206.80 L 93.12,206.80 L 94.21,206.80 L 95.30,206.80 L 96.39,206.80 L 97.48,206.80 L 98.57,206.80 L 99.66,206.80 L 100.75,206.80 L 101.84,206.80 L 102.93,206.80 L 104.02,206.80 L 105.11,206.80 L 106.20,206.80 L 107.29,206.80 L 108.38,206.80 L 109.47,206.80 L 110.56,206.80 L 111.65,206.80 L 112.74,206.80 L 113.83,206.80 L 114.92,206.80 L 116.01,206.80 L 117.10,206.80 L 118.19,206.80 L 119.28,206.80 L 120.37,206.80 L 121.46,206.80 L 122.55,206.80 L 123.64,206.80 L 124.73,206.80 L 125.82,206.80 L 126.91,206.80 L 128.00,206.80 L 129.09,206.80 L 130.18,206.80 L 131.27,206.80 L 132.36,206.80 L 133.45,206.80 L 134.54,206.80 L 135.63,206.80 L 136.72,206.80 L 137.81,206.80 L 138.90,206.80 L 139.99,206.80 L 141.08,206.80 L 142.17,206.80 L 143.26,206.80 L 144.35,206.80 L 145.44,206.80 L 146.53,206.80 L 147.62,206.80 L 148.71,206.80 L 149.80,206.80 L 150.89,206.80 L 151.98,206.80 L 153.07,206.80 L 154.16,206.80 L 155.25,206.80 L 156.34,206.80 L 157.43,206.80 L 158.52,206.80 L 159.61,206.80 L 160.70,206.80 L 161.79,206.80 L 162.88,206.80 L 163.97,206.80 L 165.06,206.80 L 166.15,206.80 L 167.24,206.80 L 168.33,206.80 L 169.42,206.80 L 170.51,206.80 L 171.60,206.80" stroke="url(#waveGrad)" stroke-width="1.4" fill="none" stroke-opacity="0.40"/>
<path d="M 89.20,188.40 L 90.17,188.40 L 91.14,188.40 L 92.11,188.40 L 93.08,188.40 L 94.05,188.40 L 95.02,188.40 L 95.99,188.40 L 96.96,188.40 L 97.93,188.40 L 98.90,188.40 L 99.87,188.40 L 100.84,188.40 L 101.81,188.40 L 102.78,188.40 L 103.75,188.40 L 104.72,188.40 L 105.69,188.40 L 106.66,188.40 L 107.63,188.40 L 108.60,188.40 L 109.57,188.40 L 110.54,188.40 L 111.51,188.40 L 112.48,188.40 L 113.45,188.40 L 114.42,188.40 L 115.39,188.40 L 116.36,188.40 L 117.33,188.40 L 118.30,188.40 L 119.27,188.40 L 120.24,188.40 L 121.21,188.40 L 122.18,188.40 L 123.15,188.40 L 124.12,188.40 L 125.09,188.40 L 126.06,188.40 L 127.03,188.40 L 128.00,188.40 L 128.97,188.40 L 129.94,188.40 L 130.91,188.40 L 131.88,188.40 L 132.85,188.40 L 133.82,188.40 L 134.79,188.40 L 135.76,188.40 L 136.73,188.40 L 137.70,188.40 L 138.67,188.40 L 139.64,188.40 L 140.61,188.40 L 141.58,188.40 L 142.55,188.40 L 143.52,188.40 L 144.49,188.40 L 145.46,188.40 L 146.43,188.40 L 147.40,188.40 L 148.37,188.40 L 149.34,188.40 L 150.31,188.40 L 151.28,188.40 L 152.25,188.40 L 153.22,188.40 L 154.19,188.40 L 155.16,188.40 L 156.13,188.40 L 157.10,188.40 L 158.07,188.40 L 159.04,188.40 L 160.01,188.40 L 160.98,188.40 L 161.95,188.40 L 162.92,188.40 L 163.89,188.40 L 164.86,188.40 L 165.83,188.40 L 166.80,188.40" stroke="url(#waveGrad)" stroke-width="1.4" fill="none" stroke-opacity="0.46"/>
<path d="M 94.00,169.85 L 94.85,169.76 L 95.70,169.68 L 96.55,169.61 L 97.40,169.55 L 98.25,169.52 L 99.10,169.50 L 99.95,169.50 L 100.80,169.52 L 101.65,169.56 L 102.50,169.62 L 103.35,169.69 L 104.20,169.77 L 105.05,169.86 L 105.90,169.96 L 106.75,170.06 L 107.60,170.15 L 108.45,170.24 L 109.30,170.32 L 110.15,170.39 L 111.00,170.45 L 111.85,170.48 L 112.70,170.50 L 113.55,170.50 L 114.40,170.48 L 115.25,170.44 L 116.10,170.38 L 116.95,170.31 L 117.80,170.23 L 118.65,170.14 L 119.50,170.04 L 120.35,169.94 L 121.20,169.85 L 122.05,169.76 L 122.90,169.68 L 123.75,169.61 L 124.60,169.55 L 125.45,169.52 L 126.30,169.50 L 127.15,169.50 L 128.00,169.52 L 128.85,169.56 L 129.70,169.62 L 130.55,169.69 L 131.40,169.77 L 132.25,169.86 L 133.10,169.96 L 133.95,170.06 L 134.80,170.15 L 135.65,170.24 L 136.50,170.32 L 137.35,170.39 L 138.20,170.45 L 139.05,170.48 L 139.90,170.50 L 140.75,170.50 L 141.60,170.48 L 142.45,170.44 L 143.30,170.38 L 144.15,170.31 L 145.00,170.23 L 145.85,170.14 L 146.70,170.04 L 147.55,169.94 L 148.40,169.85 L 149.25,169.76 L 150.10,169.68 L 150.95,169.61 L 151.80,169.55 L 152.65,169.52 L 153.50,169.50 L 154.35,169.50 L 155.20,169.52 L 156.05,169.56 L 156.90,169.62 L 157.75,169.69 L 158.60,169.77 L 159.45,169.86 L 160.30,169.96 L 161.15,170.06 L 162.00,170.15" stroke="url(#waveGrad)" stroke-width="1.4" fill="none" stroke-opacity="0.51"/>
<path d="M 97.33,150.26 L 98.10,150.42 L 98.87,150.63 L 99.63,150.87 L 100.40,151.14 L 101.17,151.42 L 101.93,151.72 L 102.70,152.01 L 103.47,152.28 L 104.23,152.53 L 105.00,152.74 L 105.77,152.91 L 106.53,153.03 L 107.30,153.09 L 108.07,153.10 L 108.83,153.04 L 109.60,152.94 L 110.37,152.78 L 111.13,152.57 L 111.90,152.33 L 112.67,152.06 L 113.43,151.78 L 114.20,151.48 L 114.97,151.19 L 115.73,150.92 L 116.50,150.67 L 117.27,150.46 L 118.03,150.29 L 118.80,150.17 L 119.57,150.11 L 120.33,150.10 L 121.10,150.16 L 121.87,150.26 L 122.63,150.42 L 123.40,150.63 L 124.17,150.87 L 124.93,151.14 L 125.70,151.42 L 126.47,151.72 L 127.23,152.01 L 128.00,152.28 L 128.77,152.53 L 129.53,152.74 L 130.30,152.91 L 131.07,153.03 L 131.83,153.09 L 132.60,153.10 L 133.37,153.04 L 134.13,152.94 L 134.90,152.78 L 135.67,152.57 L 136.43,152.33 L 137.20,152.06 L 137.97,151.78 L 138.73,151.48 L 139.50,151.19 L 140.27,150.92 L 141.03,150.67 L 141.80,150.46 L 142.57,150.29 L 143.33,150.17 L 144.10,150.11 L 144.87,150.10 L 145.63,150.16 L 146.40,150.26 L 147.17,150.42 L 147.93,150.63 L 148.70,150.87 L 149.47,151.14 L 150.23,151.42 L 151.00,151.72 L 151.77,152.01 L 152.53,152.28 L 153.30,152.53 L 154.07,152.74 L 154.83,152.91 L 155.60,153.03 L 156.37,153.09 L 157.13,153.10 L 157.90,153.04 L 158.67,152.94" stroke="url(#waveGrad)" stroke-width="1.4" fill="none" stroke-opacity="0.57"/>
<path d="M 100.67,134.96 L 101.35,135.40 L 102.03,135.76 L 102.72,136.01 L 103.40,136.16 L 104.08,136.20 L 104.77,136.12 L 105.45,135.92 L 106.13,135.63 L 106.82,135.24 L 107.50,134.77 L 108.18,134.24 L 108.87,133.67 L 109.55,133.08 L 110.23,132.50 L 110.92,131.94 L 111.60,131.44 L 112.28,131.00 L 112.97,130.64 L 113.65,130.39 L 114.33,130.24 L 115.02,130.20 L 115.70,130.28 L 116.38,130.48 L 117.07,130.77 L 117.75,131.16 L 118.43,131.63 L 119.12,132.16 L 119.80,132.73 L 120.48,133.32 L 121.17,133.90 L 121.85,134.46 L 122.53,134.96 L 123.22,135.40 L 123.90,135.76 L 124.58,136.01 L 125.27,136.16 L 125.95,136.20 L 126.63,136.12 L 127.32,135.92 L 128.00,135.63 L 128.68,135.24 L 129.37,134.77 L 130.05,134.24 L 130.73,133.67 L 131.42,133.08 L 132.10,132.50 L 132.78,131.94 L 133.47,131.44 L 134.15,131.00 L 134.83,130.64 L 135.52,130.39 L 136.20,130.24 L 136.88,130.20 L 137.57,130.28 L 138.25,130.48 L 138.93,130.77 L 139.62,131.16 L 140.30,131.63 L 140.98,132.16 L 141.67,132.73 L 142.35,133.32 L 143.03,133.90 L 143.72,134.46 L 144.40,134.96 L 145.08,135.40 L 145.77,135.76 L 146.45,136.01 L 147.13,136.16 L 147.82,136.20 L 148.50,136.12 L 149.18,135.92 L 149.87,135.63 L 150.55,135.24 L 151.23,134.77 L 151.92,134.24 L 152.60,133.67 L 153.28,133.08 L 153.97,132.50 L 154.65,131.94 L 155.33,131.44" stroke="url(#waveGrad)" stroke-width="1.4" fill="none" stroke-opacity="0.62"/>
<path d="M 104.00,117.81 L 104.60,117.16 L 105.20,116.43 L 105.80,115.63 L 106.40,114.80 L 107.00,113.97 L 107.60,113.17 L 108.20,112.44 L 108.80,111.79 L 109.40,111.27 L 110.00,110.87 L 110.60,110.63 L 111.20,110.55 L 111.80,110.63 L 112.40,110.87 L 113.00,111.27 L 113.60,111.79 L 114.20,112.44 L 114.80,113.17 L 115.40,113.97 L 116.00,114.80 L 116.60,115.63 L 117.20,116.43 L 117.80,117.16 L 118.40,117.81 L 119.00,118.33 L 119.60,118.73 L 120.20,118.97 L 120.80,119.05 L 121.40,118.97 L 122.00,118.73 L 122.60,118.33 L 123.20,117.81 L 123.80,117.16 L 124.40,116.43 L 125.00,115.63 L 125.60,114.80 L 126.20,113.97 L 126.80,113.17 L 127.40,112.44 L 128.00,111.79 L 128.60,111.27 L 129.20,110.87 L 129.80,110.63 L 130.40,110.55 L 131.00,110.63 L 131.60,110.87 L 132.20,111.27 L 132.80,111.79 L 133.40,112.44 L 134.00,113.17 L 134.60,113.97 L 135.20,114.80 L 135.80,115.63 L 136.40,116.43 L 137.00,117.16 L 137.60,117.81 L 138.20,118.33 L 138.80,118.73 L 139.40,118.97 L 140.00,119.05 L 140.60,118.97 L 141.20,118.73 L 141.80,118.33 L 142.40,117.81 L 143.00,117.16 L 143.60,116.43 L 144.20,115.63 L 144.80,114.80 L 145.40,113.97 L 146.00,113.17 L 146.60,112.44 L 147.20,111.79 L 147.80,111.27 L 148.40,110.87 L 149.00,110.63 L 149.60,110.55 L 150.20,110.63 L 150.80,110.87 L 151.40,111.27 L 152.00,111.79" stroke="url(#waveGrad)" stroke-width="1.4" fill="none" stroke-opacity="0.68"/>
<path d="M 102.22,92.35 L 102.87,91.86 L 103.51,91.54 L 104.16,91.40 L 104.80,91.46 L 105.44,91.71 L 106.09,92.14 L 106.73,92.73 L 107.38,93.46 L 108.02,94.31 L 108.67,95.23 L 109.31,96.20 L 109.96,97.18 L 110.60,98.13 L 111.24,99.01 L 111.89,99.79 L 112.53,100.45 L 113.18,100.94 L 113.82,101.26 L 114.47,101.40 L 115.11,101.34 L 115.76,101.09 L 116.40,100.66 L 117.04,100.07 L 117.69,99.34 L 118.33,98.49 L 118.98,97.57 L 119.62,96.60 L 120.27,95.62 L 120.91,94.67 L 121.56,93.79 L 122.20,93.01 L 122.84,92.35 L 123.49,91.86 L 124.13,91.54 L 124.78,91.40 L 125.42,91.46 L 126.07,91.71 L 126.71,92.14 L 127.36,92.73 L 128.00,93.46 L 128.64,94.31 L 129.29,95.23 L 129.93,96.20 L 130.58,97.18 L 131.22,98.13 L 131.87,99.01 L 132.51,99.79 L 133.16,100.45 L 133.80,100.94 L 134.44,101.26 L 135.09,101.40 L 135.73,101.34 L 136.38,101.09 L 137.02,100.66 L 137.67,100.07 L 138.31,99.34 L 138.96,98.49 L 139.60,97.57 L 140.24,96.60 L 140.89,95.62 L 141.53,94.67 L 142.18,93.79 L 142.82,93.01 L 143.47,92.35 L 144.11,91.86 L 144.76,91.54 L 145.40,91.40 L 146.04,91.46 L 146.69,91.71 L 147.33,92.14 L 147.98,92.73 L 148.62,93.46 L 149.27,94.31 L 149.91,95.23 L 150.56,96.20 L 151.20,97.18 L 151.84,98.13 L 152.49,99.01 L 153.13,99.79 L 153.78,100.45" stroke="url(#waveGrad)" stroke-width="1.4" fill="none" stroke-opacity="0.73"/>
<path d="M 100.44,75.73 L 101.13,76.64 L 101.82,77.61 L 102.51,78.59 L 103.20,79.55 L 103.89,80.44 L 104.58,81.25 L 105.27,81.93 L 105.96,82.46 L 106.64,82.81 L 107.33,82.98 L 108.02,82.97 L 108.71,82.76 L 109.40,82.36 L 110.09,81.80 L 110.78,81.10 L 111.47,80.27 L 112.16,79.36 L 112.84,78.39 L 113.53,77.41 L 114.22,76.45 L 114.91,75.56 L 115.60,74.75 L 116.29,74.07 L 116.98,73.54 L 117.67,73.19 L 118.36,73.02 L 119.04,73.03 L 119.73,73.24 L 120.42,73.64 L 121.11,74.20 L 121.80,74.90 L 122.49,75.73 L 123.18,76.64 L 123.87,77.61 L 124.56,78.59 L 125.24,79.55 L 125.93,80.44 L 126.62,81.25 L 127.31,81.93 L 128.00,82.46 L 128.69,82.81 L 129.38,82.98 L 130.07,82.97 L 130.76,82.76 L 131.44,82.36 L 132.13,81.80 L 132.82,81.10 L 133.51,80.27 L 134.20,79.36 L 134.89,78.39 L 135.58,77.41 L 136.27,76.45 L 136.96,75.56 L 137.64,74.75 L 138.33,74.07 L 139.02,73.54 L 139.71,73.19 L 140.40,73.02 L 141.09,73.03 L 141.78,73.24 L 142.47,73.64 L 143.16,74.20 L 143.84,74.90 L 144.53,75.73 L 145.22,76.64 L 145.91,77.61 L 146.60,78.59 L 147.29,79.55 L 147.98,80.44 L 148.67,81.25 L 149.36,81.93 L 150.04,82.46 L 150.73,82.81 L 151.42,82.98 L 152.11,82.97 L 152.80,82.76 L 153.49,82.36 L 154.18,81.80 L 154.87,81.10 L 155.56,80.27" stroke="url(#waveGrad)" stroke-width="1.4" fill="none" stroke-opacity="0.79"/>
<path d="M 98.67,63.88 L 99.40,64.07 L 100.13,64.09 L 100.87,63.93 L 101.60,63.61 L 102.33,63.13 L 103.07,62.52 L 103.80,61.80 L 104.53,60.99 L 105.27,60.13 L 106.00,59.25 L 106.73,58.38 L 107.47,57.56 L 108.20,56.81 L 108.93,56.18 L 109.67,55.67 L 110.40,55.32 L 111.13,55.13 L 111.87,55.11 L 112.60,55.27 L 113.33,55.59 L 114.07,56.07 L 114.80,56.68 L 115.53,57.40 L 116.27,58.21 L 117.00,59.07 L 117.73,59.95 L 118.47,60.82 L 119.20,61.64 L 119.93,62.39 L 120.67,63.02 L 121.40,63.53 L 122.13,63.88 L 122.87,64.07 L 123.60,64.09 L 124.33,63.93 L 125.07,63.61 L 125.80,63.13 L 126.53,62.52 L 127.27,61.80 L 128.00,60.99 L 128.73,60.13 L 129.47,59.25 L 130.20,58.38 L 130.93,57.56 L 131.67,56.81 L 132.40,56.18 L 133.13,55.67 L 133.87,55.32 L 134.60,55.13 L 135.33,55.11 L 136.07,55.27 L 136.80,55.59 L 137.53,56.07 L 138.27,56.68 L 139.00,57.40 L 139.73,58.21 L 140.47,59.07 L 141.20,59.95 L 141.93,60.82 L 142.67,61.64 L 143.40,62.39 L 144.13,63.02 L 144.87,63.53 L 145.60,63.88 L 146.33,64.07 L 147.07,64.09 L 147.80,63.93 L 148.53,63.61 L 149.27,63.13 L 150.00,62.52 L 150.73,61.80 L 151.47,60.99 L 152.20,60.13 L 152.93,59.25 L 153.67,58.38 L 154.40,57.56 L 155.13,56.81 L 155.87,56.18 L 156.60,55.67 L 157.33,55.32" stroke="url(#waveGrad)" stroke-width="1.4" fill="none" stroke-opacity="0.84"/>
<path d="M 96.89,41.79 L 97.67,41.05 L 98.44,40.32 L 99.22,39.63 L 100.00,39.00 L 100.78,38.45 L 101.56,38.00 L 102.33,37.68 L 103.11,37.50 L 103.89,37.45 L 104.67,37.55 L 105.44,37.79 L 106.22,38.17 L 107.00,38.65 L 107.78,39.24 L 108.56,39.90 L 109.33,40.61 L 110.11,41.35 L 110.89,42.08 L 111.67,42.77 L 112.44,43.40 L 113.22,43.95 L 114.00,44.40 L 114.78,44.72 L 115.56,44.90 L 116.33,44.95 L 117.11,44.85 L 117.89,44.61 L 118.67,44.23 L 119.44,43.75 L 120.22,43.16 L 121.00,42.50 L 121.78,41.79 L 122.56,41.05 L 123.33,40.32 L 124.11,39.63 L 124.89,39.00 L 125.67,38.45 L 126.44,38.00 L 127.22,37.68 L 128.00,37.50 L 128.78,37.45 L 129.56,37.55 L 130.33,37.79 L 131.11,38.17 L 131.89,38.65 L 132.67,39.24 L 133.44,39.90 L 134.22,40.61 L 135.00,41.35 L 135.78,42.08 L 136.56,42.77 L 137.33,43.40 L 138.11,43.95 L 138.89,44.40 L 139.67,44.72 L 140.44,44.90 L 141.22,44.95 L 142.00,44.85 L 142.78,44.61 L 143.56,44.23 L 144.33,43.75 L 145.11,43.16 L 145.89,42.50 L 146.67,41.79 L 147.44,41.05 L 148.22,40.32 L 149.00,39.63 L 149.78,39.00 L 150.56,38.45 L 151.33,38.00 L 152.11,37.68 L 152.89,37.50 L 153.67,37.45 L 154.44,37.55 L 155.22,37.79 L 156.00,38.17 L 156.78,38.65 L 157.56,39.24 L 158.33,39.90 L 159.11,40.61" stroke="url(#waveGrad)" stroke-width="1.4" fill="none" stroke-opacity="0.90"/>

  </g>

  <!-- Vase outline (glowing edge) -->
  <path d="M 94.00,32.00 L 94.15,33.53 L 94.30,35.07 L 94.44,36.60 L 94.59,38.13 L 94.74,39.67 L 94.89,41.20 L 95.04,42.73 L 95.19,44.27 L 95.33,45.80 L 95.48,47.33 L 95.63,48.87 L 95.78,50.40 L 95.93,51.93 L 96.07,53.47 L 96.22,55.00 L 96.37,56.53 L 96.52,58.07 L 96.67,59.60 L 96.81,61.13 L 96.96,62.67 L 97.11,64.20 L 97.26,65.73 L 97.41,67.27 L 97.56,68.80 L 97.70,70.33 L 97.85,71.87 L 98.00,73.40 L 98.15,74.93 L 98.30,76.47 L 98.44,78.00 L 98.59,79.53 L 98.74,81.07 L 98.89,82.60 L 99.04,84.13 L 99.19,85.67 L 99.33,87.20 L 99.48,88.73 L 99.63,90.27 L 99.78,91.80 L 99.93,93.33 L 100.07,94.87 L 100.22,96.40 L 100.37,97.93 L 100.52,99.47 L 100.67,101.00 L 100.81,102.53 L 100.96,104.07 L 101.11,105.60 L 101.26,107.13 L 101.41,108.67 L 101.56,110.20 L 101.70,111.73 L 101.85,113.27 L 102.00,114.80 L 101.72,116.33 L 101.44,117.87 L 101.17,119.40 L 100.89,120.93 L 100.61,122.47 L 100.33,124.00 L 100.06,125.53 L 99.78,127.07 L 99.50,128.60 L 99.22,130.13 L 98.94,131.67 L 98.67,133.20 L 98.39,134.73 L 98.11,136.27 L 97.83,137.80 L 97.56,139.33 L 97.28,140.87 L 97.00,142.40 L 96.72,143.93 L 96.44,145.47 L 96.17,147.00 L 95.89,148.53 L 95.61,150.07 L 95.33,151.60 L 95.06,153.13 L 94.78,154.67 L 94.50,156.20 L 94.22,157.73 L 93.94,159.27 L 93.67,160.80 L 93.39,162.33 L 93.11,163.87 L 92.83,165.40 L 92.56,166.93 L 92.28,168.47 L 92.00,170.00 L 91.60,171.53 L 91.20,173.07 L 90.80,174.60 L 90.40,176.13 L 90.00,177.67 L 89.60,179.20 L 89.20,180.73 L 88.80,182.27 L 88.40,183.80 L 88.00,185.33 L 87.60,186.87 L 87.20,188.40 L 86.80,189.93 L 86.40,191.47 L 86.00,193.00 L 85.60,194.53 L 85.20,196.07 L 84.80,197.60 L 84.40,199.13 L 84.00,200.67 L 83.60,202.20 L 83.20,203.73 L 82.80,205.27 L 82.40,206.80 L 82.00,208.33 L 81.60,209.87 L 81.20,211.40 L 80.80,212.93 L 80.40,214.47 L 80.00,216.00 L 176.00,216.00 L 175.60,214.47 L 175.20,212.93 L 174.80,211.40 L 174.40,209.87 L 174.00,208.33 L 173.60,206.80 L 173.20,205.27 L 172.80,203.73 L 172.40,202.20 L 172.00,200.67 L 171.60,199.13 L 171.20,197.60 L 170.80,196.07 L 170.40,194.53 L 170.00,193.00 L 169.60,191.47 L 169.20,189.93 L 168.80,188.40 L 168.40,186.87 L 168.00,185.33 L 167.60,183.80 L 167.20,182.27 L 166.80,180.73 L 166.40,179.20 L 166.00,177.67 L 165.60,176.13 L 165.20,174.60 L 164.80,173.07 L 164.40,171.53 L 164.00,170.00 L 163.72,168.47 L 163.44,166.93 L 163.17,165.40 L 162.89,163.87 L 162.61,162.33 L 162.33,160.80 L 162.06,159.27 L 161.78,157.73 L 161.50,156.20 L 161.22,154.67 L 160.94,153.13 L 160.67,151.60 L 160.39,150.07 L 160.11,148.53 L 159.83,147.00 L 159.56,145.47 L 159.28,143.93 L 159.00,142.40 L 158.72,140.87 L 158.44,139.33 L 158.17,137.80 L 157.89,136.27 L 157.61,134.73 L 157.33,133.20 L 157.06,131.67 L 156.78,130.13 L 156.50,128.60 L 156.22,127.07 L 155.94,125.53 L 155.67,124.00 L 155.39,122.47 L 155.11,120.93 L 154.83,119.40 L 154.56,117.87 L 154.28,116.33 L 154.00,114.80 L 154.15,113.27 L 154.30,111.73 L 154.44,110.20 L 154.59,108.67 L 154.74,107.13 L 154.89,105.60 L 155.04,104.07 L 155.19,102.53 L 155.33,101.00 L 155.48,99.47 L 155.63,97.93 L 155.78,96.40 L 155.93,94.87 L 156.07,93.33 L 156.22,91.80 L 156.37,90.27 L 156.52,88.73 L 156.67,87.20 L 156.81,85.67 L 156.96,84.13 L 157.11,82.60 L 157.26,81.07 L 157.41,79.53 L 157.56,78.00 L 157.70,76.47 L 157.85,74.93 L 158.00,73.40 L 158.15,71.87 L 158.30,70.33 L 158.44,68.80 L 158.59,67.27 L 158.74,65.73 L 158.89,64.20 L 159.04,62.67 L 159.19,61.13 L 159.33,59.60 L 159.48,58.07 L 159.63,56.53 L 159.78,55.00 L 159.93,53.47 L 160.07,51.93 L 160.22,50.40 L 160.37,48.87 L 160.52,47.33 L 160.67,45.80 L 160.81,44.27 L 160.96,42.73 L 161.11,41.20 L 161.26,39.67 L 161.41,38.13 L 161.56,36.60 L 161.70,35.07 L 161.85,33.53 L 162.00,32.00 Z" fill="none" stroke="url(#edgeGrad)" stroke-width="1.8" stroke-opacity="0.9"/>

  <!-- Highlight sheen on left edge -->
  <path d="M 94.00,32.00 L 94.15,33.53 L 94.30,35.07 L 94.44,36.60 L 94.59,38.13 L 94.74,39.67 L 94.89,41.20 L 95.04,42.73 L 95.19,44.27 L 95.33,45.80 L 95.48,47.33 L 95.63,48.87 L 95.78,50.40 L 95.93,51.93 L 96.07,53.47 L 96.22,55.00 L 96.37,56.53 L 96.52,58.07 L 96.67,59.60 L 96.81,61.13 L 96.96,62.67 L 97.11,64.20 L 97.26,65.73 L 97.41,67.27 L 97.56,68.80 L 97.70,70.33 L 97.85,71.87 L 98.00,73.40 L 98.15,74.93 L 98.30,76.47 L 98.44,78.00 L 98.59,79.53 L 98.74,81.07 L 98.89,82.60 L 99.04,84.13 L 99.19,85.67 L 99.33,87.20 L 99.48,88.73 L 99.63,90.27 L 99.78,91.80 L 99.93,93.33 L 100.07,94.87 L 100.22,96.40 L 100.37,97.93 L 100.52,99.47 L 100.67,101.00 L 100.81,102.53 L 100.96,104.07 L 101.11,105.60 L 101.26,107.13 L 101.41,108.67 L 101.56,110.20 L 101.70,111.73 L 101.85,113.27 L 102.00,114.80 L 101.72,116.33 L 101.44,117.87 L 101.17,119.40 L 100.89,120.93 L 100.61,122.47 L 100.33,124.00 L 100.06,125.53 L 99.78,127.07 L 99.50,128.60 L 99.22,130.13 L 98.94,131.67 L 98.67,133.20 L 98.39,134.73 L 98.11,136.27 L 97.83,137.80 L 97.56,139.33 L 97.28,140.87 L 97.00,142.40 L 96.72,143.93 L 96.44,145.47 L 96.17,147.00 L 95.89,148.53 L 95.61,150.07 L 95.33,151.60 L 95.06,153.13 L 94.78,154.67 L 94.50,156.20 L 94.22,157.73 L 93.94,159.27 L 93.67,160.80 L 93.39,162.33 L 93.11,163.87 L 92.83,165.40 L 92.56,166.93 L 92.28,168.47 L 92.00,170.00 L 91.60,171.53 L 91.20,173.07 L 90.80,174.60 L 90.40,176.13 L 90.00,177.67 L 89.60,179.20 L 89.20,180.73 L 88.80,182.27 L 88.40,183.80 L 88.00,185.33 L 87.60,186.87 L 87.20,188.40 L 86.80,189.93 L 86.40,191.47 L 86.00,193.00 L 85.60,194.53 L 85.20,196.07 L 84.80,197.60 L 84.40,199.13 L 84.00,200.67 L 83.60,202.20 L 83.20,203.73 L 82.80,205.27 L 82.40,206.80 L 82.00,208.33 L 81.60,209.87 L 81.20,211.40 L 80.80,212.93 L 80.40,214.47 L 80.00,216.00" fill="none" stroke="#a0dff7" stroke-width="1.0" stroke-opacity="0.25"/>

  <!-- Text: FerroSlicer -->
  <text x="128" y="243" 
    font-family="'SF Pro Display', 'Helvetica Neue', Arial, sans-serif"
    font-size="13.5" font-weight="700" letter-spacing="2.5"
    fill="#7ed4f7" text-anchor="middle" fill-opacity="0.92">FERROSLICER</text>
</svg>